<svg version="1.1" viewBox="0 0 797 758" xmlns="http://www.w3.org/2000/svg"
     fill='#000'>
    <path d="M0 0L797 0L797 758L0 758L0 0Z" fill="#d3e2e7" opacity="1" stroke="none"/>
    <path
            d="M350.49 29.76C354.66 28.88 358.83 29.33 362.58 31.4C370.55 35.59 374.23 46.11 370.3 54.29C366.28 63.19 354.08 67.51 345.57 62.45C339.56 59.31 336.14 52.68 336.5 45.98C337.07 38.09 342.61 31.27 350.49 29.76Z"
            fill="#203048" opacity="1" stroke="none"/>
    <path
            d="M215.44 52.54C219.05 51.48 223.23 52.46 225.97 55.05C229.82 58.66 230.57 64.99 227.21 69.21C223.07 75.3 212.95 75.35 209.26 68.7C205.38 62.43 208.31 54.47 215.44 52.54Z"
            fill="#203048" opacity="1" stroke="none"/>
    <path
            d="M285.44 58.47C291.19 56.4 297.33 58.1 300.97 63.01C304.59 68.13 304.44 75.44 300 80.01C295.25 84.98 287.15 85.88 281.95 81.06C274.86 74.98 276.45 61.87 285.44 58.47Z"
            fill="#203048" opacity="1" stroke="none"/>
    <path
            d="M564.72 98.29C573.07 102.32 581.73 106.38 589.41 111.58C591.17 112.73 592.99 113.76 594.82 114.78C598.29 109.48 602.84 104.79 607.55 100.57C613.45 95.3 621.14 92.6 628.99 92.31C638.82 92.21 648.12 97.33 653.27 105.69C656.42 110.68 657.13 116.2 657.14 122C657.12 156.67 657.16 191.33 657.12 226C657.07 230.32 657 234.69 656.47 238.98C655.89 243.26 654.12 246.81 652.4 250.69C648.16 255.8 643.52 260.2 637.04 262.26C631.59 264.13 625.71 263.56 620 263.58C592 263.44 564 263.66 536 263.63C528.94 263.78 522.33 261.21 517.08 256.52C513.32 252.17 510.92 246.84 511.23 241C511.34 235.59 513.52 230.82 516.57 226.46C508.86 222.8 500.51 221.14 492 221.21C475.7 220.77 459.82 226.94 447.49 237.47C432.76 249.62 423.13 266.71 417.61 284.8C414.97 294.06 412.66 303.46 411.08 312.97C452.72 313.09 494.36 313.04 536 313.03C543.3 313.15 551.25 313.29 558.22 315.57C572.5 319.71 585.02 329.84 592.07 342.93C597.43 352.46 599.86 363.12 600.12 373.99C600.27 395.65 600.09 417.31 600.27 438.95C614.18 438.94 628.09 438.8 642 439.04C649.07 439.1 655.93 440.24 662.08 443.91C671.91 449.51 678.15 460.67 677.58 472C677.19 477.74 676.35 483.47 675.66 489.19C672.77 513.79 670.13 538.42 666.92 562.98C663.86 589.72 660.84 616.47 657.57 643.18C656.61 651.17 654.28 658.76 651.74 666.36C648.37 673.32 645.04 680.31 640.57 686.57C620.61 715.77 585.51 734.61 550 733.71C453.99 733.77 358.01 733.73 262 733.73C246.75 733.62 231.49 734.02 216.25 733.61C196.04 732.68 176.98 725.14 160.72 713.29C143.91 700.52 130.18 683.84 123.32 663.68C120.26 655.17 119.1 646.53 117.89 637.62C116.99 624.39 118.97 611.35 120.08 598.21C120.74 589.79 121.86 581.43 122.53 573C123.11 565.6 124.45 558.14 124.59 550.73C120.68 545.78 117.33 540.56 115.38 534.52C113.18 528.46 113.07 521.44 112.81 515C112.57 459.66 112.77 404.34 112.62 349C112.57 327.34 121.4 306.07 136.81 290.86C148.84 278.18 165.31 269.59 182.18 265.45C199.74 261.43 218.38 261.48 235.97 265.29C249.37 268.84 262.52 274.88 273.25 283.74C281.58 290.65 288.09 298.8 294.76 307.24C296.34 309.27 298.11 311.12 299.9 312.96C305.26 313.02 310.63 312.97 315.99 312.9C313.81 307.55 311.18 302.39 309.3 296.95C305.82 287.33 303.73 277.17 302.65 267.01C298.95 228.56 308.62 188.48 330.25 156.38C352.28 123.01 385.88 97.49 424.45 86.51C470.5 72.74 521.39 77.99 564.72 98.29Z"
            fill="#203048" opacity="1" stroke="none"/>
    <path
            d="M174.92 94.04C187.64 98.31 197.51 109.72 199.59 123.03C201.38 133.87 197.72 144.78 190.92 153.22C185.23 159.02 178.09 163.13 170.24 165.21C161.23 167.24 151.35 165.32 143.5 160.54C139.35 158.05 136.36 154.69 133.01 151.27C128.8 145.27 126.05 138.43 125.77 131.05C125.23 120.68 129.5 110.12 136.91 102.9C146.54 93.14 161.98 89.67 174.92 94.04Z"
            fill="#203048" opacity="1" stroke="none"/>
    <path
            d="M542.85 126.99C551.64 130.66 560.21 134.87 568.57 139.43C578.05 144.7 586.77 151.05 595.88 156.88C596.65 158.24 597.83 159.1 596.66 160.7C594.18 163.83 590.93 166.29 588.42 169.43C586.9 171 585.22 173.51 583.05 174.11C578.91 172.22 575.42 168.89 571.51 166.55C548.07 152.42 523.37 141.76 496.03 138.26C485.95 137.36 476.08 137.34 466 138.35C448.51 140.71 431.74 146.23 416.9 155.9C407.06 162.05 398.22 169.85 390.47 178.47C381.21 189.96 373.47 202.49 368.59 216.48C363.66 229.21 361.43 242.49 359.93 256C358.39 274.2 357.53 292.8 359.29 311.01C359.43 314.25 359.96 317.59 359.62 320.83C359.28 321.52 358.81 322.17 358.22 322.78C354.05 314.41 350.45 305.81 346.84 297.18C341.36 283.94 337.15 269.4 336.68 255.01C336.05 238.35 338.14 221.67 343.9 205.98C348.85 191.11 356.95 177.86 366.49 165.51C377.55 151.84 391.13 139.97 406.68 131.65C420.18 123.83 434.78 119.61 449.99 116.56C481.16 110.95 513.67 114.76 542.85 126.99Z"
            fill="#f6f9fa" opacity="1" stroke="none"/>
    <path
            d="M159.21 120.28C164.02 118.4 169.36 120.74 171.95 125.02C174.39 128.73 173.42 133.61 170.98 137.04C166.56 141.53 158.57 141.37 154.68 136.24C150.46 130.86 152.66 122.58 159.21 120.28Z"
            fill="#f6f9fa" opacity="1" stroke="none"/>
    <path
            d="M626.66 124.87C626.92 127.24 627.16 129.61 627.19 132C627.34 161.34 627.1 190.66 627.19 220C627.21 223.23 627.02 226.45 626.79 229.67C595.15 230.05 563.52 229.72 531.88 229.79C539.19 222.7 546.32 215.4 553.42 208.1C541.3 198.21 526.29 191.27 510.98 188.13C492.98 184.25 474.32 185.87 456.94 191.79C440.94 197.23 426.73 206.9 415.22 219.21C399.98 235.31 390.45 254.94 384.21 276.05C381.05 286.96 379.31 297.99 377.61 309.19C375.93 320.54 371.99 331.59 367.57 342.13C364.61 335.61 361.22 329.29 358.22 322.78C358.81 322.17 359.28 321.52 359.62 320.83C359.96 317.59 359.43 314.25 359.29 311.01C357.53 292.8 358.39 274.2 359.93 256C361.43 242.49 363.66 229.21 368.59 216.48C373.47 202.49 381.21 189.96 390.47 178.47C398.22 169.85 407.06 162.05 416.9 155.9C431.74 146.23 448.51 140.71 466 138.35C476.08 137.34 485.95 137.36 496.03 138.26C523.37 141.76 548.07 152.42 571.51 166.55C575.42 168.89 578.91 172.22 583.05 174.11C585.22 173.51 586.9 171 588.42 169.43C590.93 166.29 594.18 163.83 596.66 160.7C597.83 159.1 596.65 158.24 595.88 156.88C597.29 152.91 600.34 151.02 603.19 148.18C611.04 140.44 618.81 132.61 626.66 124.87Z"
            fill="#d1dae3" opacity="1" stroke="none"/>
    <path
            d="M133.01 151.27C136.36 154.69 139.35 158.05 143.5 160.54C151.35 165.32 161.23 167.24 170.24 165.21C178.09 163.13 185.23 159.02 190.92 153.22C189.86 158.21 186.09 160.52 182.15 163.17C177.06 166.29 171.04 169.12 165.01 169.47C156.14 169.91 147.23 167.46 140.49 161.52C137.28 158.49 133.92 155.79 133.01 151.27Z"
            fill="#d1dae3" opacity="1" stroke="none"/>
    <path
            d="M595.46 185.56C604.6 183.96 612.73 191.01 613.62 200C614.79 209.05 607.05 217.24 598.01 216.97C589.13 217.01 581.74 208.83 582.79 199.98C583.29 193 588.59 186.91 595.46 185.56Z"
            fill="#203048" opacity="1" stroke="none"/>
    <path
            d="M60.47 188.62C65.47 186.84 71.12 187.32 75.38 190.63C82.3 195.76 83.9 206.61 78.3 213.29C72.93 219.63 61.98 220.96 55.56 215.44C51.03 211.46 49.4 204.76 50.96 199.02C52.2 194.16 55.74 190.29 60.47 188.62Z"
            fill="#203048" opacity="1" stroke="none"/>
    <path
            d="M253.49 196.73C258.8 195.58 264.64 196.73 269.09 199.87C275.73 204.69 278.87 213.88 275.54 221.57C271.97 230.61 261.26 235.55 252 232.92C243.8 230.59 237.75 222.57 238.25 213.98C238.55 205.52 245.2 198.18 253.49 196.73Z"
            fill="#203048" opacity="1" stroke="none"/>
    <path
            d="M692.4 201.46C702.78 197.76 713.83 206.14 713.65 216.99C714.06 227.04 703.71 234.63 694.2 232.82C686.81 231.42 681.45 224.48 681.6 217C681.39 209.98 685.83 203.77 692.4 201.46Z"
            fill="#203048" opacity="1" stroke="none"/>
    <path
            d="M652.4 250.69C652.04 253.51 652.02 256.12 650.48 258.62C645.56 266.87 636.36 270.71 627 270.55C597.65 270.57 568.32 270.76 538.97 270.51C533.33 270.39 527.86 269.1 523.21 265.81C520.04 263.37 517.22 260.81 517.08 256.52C522.33 261.21 528.94 263.78 536 263.63C564 263.66 592 263.44 620 263.58C625.71 263.56 631.59 264.13 637.04 262.26C643.52 260.2 648.16 255.8 652.4 250.69Z"
            fill="#d1dae3" opacity="1" stroke="none"/>
    <path
            d="M55.45 261.62C61.14 260.05 66.28 263.18 68.35 268.47C69.27 271.88 68.59 275.51 66.11 278.1C61.72 283.45 51.87 282.41 49.13 275.86C46.3 270.15 49.11 263.09 55.45 261.62Z"
            fill="#203048" opacity="1" stroke="none"/>
    <path
            d="M115.43 264.46C118.6 263.29 122.41 263.63 124.82 266.18C127.77 269.22 128.12 274.09 125.4 277.39C122.64 281.04 116.77 281.95 113.4 278.63C108.75 274.81 109.95 266.85 115.43 264.46Z"
            fill="#203048" opacity="1" stroke="none"/>
    <path
            d="M204.01 297.3C216.8 296.78 229.83 298.49 241.13 304.84C251.82 310.44 259.38 319.01 266.58 328.45C272.02 335.58 277.81 341.97 286.23 345.59C290.95 347.79 295.88 348.09 301 348.18C308.33 348.26 315.67 348.24 323 348.24C325.43 348.3 327.68 348.2 329.81 349.54C331.39 353.99 334.62 357.91 337.13 361.92C341.16 367.44 345.17 373.33 351.17 376.86C356.21 379.91 361.95 382.7 368.02 381.84C373.99 380.99 380.39 379.16 384.77 374.79C388.28 371.52 390.44 368.04 391.78 363.44C395.21 358.57 397.72 353.17 401.31 348.42C446.87 348.44 492.44 348.37 538 348.51C542.69 348.55 547.19 348.5 551.53 350.54C556.67 353.06 561.07 356.93 564.24 361.71C519.16 362.15 474.07 361.68 428.99 361.92C421.52 361.76 414.76 366.73 412.78 373.92C411.68 379.3 412.12 384.86 415.84 389.16C419.36 393.36 424.59 395.26 429.99 395.2C475.46 395.23 520.93 395.09 566.39 395.37C566.28 400.96 566.39 406.54 566.43 412.12C558.28 411.84 550.15 412.26 542 412.19C521.67 412.06 501.33 412.24 481 412.2C468.05 411.94 455.04 411.79 442.1 412.46C436.38 412.79 430.97 414.9 427.98 420.03C425.04 425.57 425.38 432.31 427.48 438.07L425.92 438.28C420.96 437.13 416.57 434.62 412.8 431.22C399.47 419.57 387.39 406.6 373.69 395.28C366.75 389.81 359.07 385.3 350.85 382.05C343.04 378.93 334.44 376.14 326 375.76C318.01 375.38 310 375.43 302 375.38C271.67 375.5 241.33 375.33 211 375.41C203.18 375.46 194.76 375.46 187.22 377.66C177.61 380.19 169.2 385.29 161.75 391.75C155.37 397.33 150.75 404.28 146.15 411.32C146 393.88 146.01 376.44 145.92 359C145.88 351.46 145.74 344.3 148.01 337.01C151.13 327.49 156.81 318.92 164.39 312.36C175.2 302.61 189.63 297.91 204.01 297.3Z"
            fill="#f6f9fa" opacity="1" stroke="none"/>
    <path
            d="M736.69 309.36C741.35 314.33 739.29 323.15 739.76 329.47C745.15 329.58 750.6 329.01 755.97 329.45C762.54 329.99 767.81 336.51 767.03 343.02C766.14 348.82 760.89 353.57 754.98 353.68C749.94 353.87 744.89 353.59 739.85 353.58C739.78 357.73 739.94 361.88 739.78 366.02C739.75 371.09 736.17 376.09 731.29 377.55C725.42 379.31 719.37 376.86 716.55 371.41C714.11 366.28 715.52 359.23 715.18 353.64C709.46 353.53 703.7 353.99 698 353.58C691.85 353.22 687.39 346.88 687.76 340.98C687.83 335.69 691.58 330.67 696.95 329.86C702.98 329.05 709.17 329.7 715.25 329.32C715.22 324.43 714.72 319.29 715.59 314.47C716.31 310.74 718.96 307.98 722.15 306.15C727.16 303.67 733.27 304.87 736.69 309.36Z"
            fill="#203048" opacity="1" stroke="none"/>
    <path
            d="M37.49 342.64C41.85 341.31 47.06 341.39 50.87 344.16C56.93 348.25 59.18 357.1 55.44 363.44C51.54 370.77 40.99 373.76 34.04 368.96C27.87 365.07 26.11 356.51 29.04 350.1C30.83 346.76 33.88 343.89 37.49 342.64Z"
            fill="#203048" opacity="1" stroke="none"/>
    <path
            d="M329.81 349.54C332.03 350.91 333.71 352.61 335.22 354.72C338.94 359.83 342.12 364.8 347.13 368.82C354.55 374.88 364.26 378.2 373.78 375.71C381.33 374.02 386.9 369.18 391.78 363.44C390.44 368.04 388.28 371.52 384.77 374.79C380.39 379.16 373.99 380.99 368.02 381.84C361.95 382.7 356.21 379.91 351.17 376.86C345.17 373.33 341.16 367.44 337.13 361.92C334.62 357.91 331.39 353.99 329.81 349.54Z"
            fill="#d1dae3" opacity="1" stroke="none"/>
    <path
            d="M213 410.38C248.27 410.61 283.6 410.12 318.88 410.49C328.16 410.47 337.21 412.91 345 418C355.73 425.22 363.8 434.25 373.33 442.66C380.4 449.38 387.1 456.17 394.85 462.17C402.49 468.01 411.74 471.76 421.17 473.43C429.98 474.66 439.11 474.07 448 474.23C507.15 474.13 566.29 474.16 625.44 474.27C625.8 482.66 623.69 490.58 622.46 499.15C617.42 529.01 613.71 559.06 608.82 588.97C606.96 599.78 605.64 610.72 603.42 621.43C601.28 630 596.46 638.95 590.43 645.42C580.63 655.56 565.99 661.05 552 661.06C430.61 661.08 309.4 661.06 188 661.15C181.46 661.29 175.11 660.52 169.04 657.99C163.66 656.09 159.83 652.5 155.11 649.52C151.67 639.72 150.99 629.06 152.22 618.8C154.55 594.52 157.16 570.27 159.68 546.01C161.91 521.26 164.35 496.54 166.84 471.81C167.74 463.23 168.3 454.58 169.45 446.03C171.29 433.04 179.57 420.34 191.52 414.55C198.3 411.16 205.52 410.4 213 410.38Z"
            fill="#f6f9fa" opacity="1" stroke="none"/>
    <path
            d="M442.1 412.46C455.04 411.79 468.05 411.94 481 412.2C501.33 412.24 521.67 412.06 542 412.19C550.15 412.26 558.28 411.84 566.43 412.12C566.48 420.97 566.33 429.82 566.32 438.67C561.21 438.96 556.11 438.87 551 438.85C511 438.86 471 438.92 431 438.74C429.29 438.7 427.6 438.61 425.92 438.28L427.48 438.07C425.38 432.31 425.04 425.57 427.98 420.03C430.97 414.9 436.38 412.79 442.1 412.46Z"
            fill="#d1dae3" opacity="1" stroke="none"/>
    <path
            d="M692.61 431.4C694.42 434 693.53 437.35 691.53 439.55C689.8 441.12 686.56 441 684.44 440.48C683.31 439.66 682.32 438.63 681.31 437.67C681.42 434.85 680.73 432.24 682.91 430.01C685.67 427.2 690.6 428.22 692.61 431.4Z"
            fill="#203048" opacity="1" stroke="none"/>
    <path
            d="M725.46 463.58C733.37 461.46 742.44 466.52 744.59 474.47C747.21 482.64 742.61 491.59 734.48 494.26C724.8 498.12 713.34 490.38 713.31 480C712.9 472.25 717.92 465.41 725.46 463.58Z"
            fill="#203048" opacity="1" stroke="none"/>
    <path
            d="M625.44 474.27C631.3 474.37 637.16 474.27 643.02 474.23C637.58 523.52 631.47 572.78 626.06 622.2C624.86 631.82 624.36 640.79 621.11 650C618.67 657.65 614.43 664.22 609.56 670.53C597.76 685.32 579.97 696.36 560.99 698.51C549.74 699.44 538.29 699.15 527 699.16C430 699.17 333 699.2 236 699.18C225.41 699.07 215.55 699.54 205.21 696.8C195.52 694.53 187 689.75 179.06 683.88C167.8 675.07 158.97 663.42 155.11 649.52C159.83 652.5 163.66 656.09 169.04 657.99C175.11 660.52 181.46 661.29 188 661.15C309.4 661.06 430.61 661.08 552 661.06C565.99 661.05 580.63 655.56 590.43 645.42C596.46 638.95 601.28 630 603.42 621.43C605.64 610.72 606.96 599.78 608.82 588.97C613.71 559.06 617.42 529.01 622.46 499.15C623.69 490.58 625.8 482.66 625.44 474.27Z"
            fill="#d1dae3" opacity="1" stroke="none"/>
    <path
            d="M42.17 498.14C53.26 494.75 65.44 501.85 68.37 512.94C71.23 523.21 65.12 534.6 54.8 537.57C45.44 540.98 35.07 537.79 29.64 529.39C25.32 522.96 25.6 514.81 29.08 508.09C31.91 503.14 36.8 499.83 42.17 498.14Z"
            fill="#203048" opacity="1" stroke="none"/>
    <path
            d="M88.13 605.98C88.43 608.76 89.1 611.2 87.97 613.9C85.99 617.01 80.18 618.08 77.67 615.15C75.96 612.29 76.2 608 78.44 605.46C81.85 603.1 84.82 604.22 88.13 605.98Z"
            fill="#d1dae3" opacity="1" stroke="none"/>
    <path
            d="M117.89 637.62C119.1 646.53 120.26 655.17 123.32 663.68C130.18 683.84 143.91 700.52 160.72 713.29C176.98 725.14 196.04 732.68 216.25 733.61C231.49 734.02 246.75 733.62 262 733.73C358.01 733.73 453.99 733.77 550 733.71C585.51 734.61 620.61 715.77 640.57 686.57C645.04 680.31 648.37 673.32 651.74 666.36C651.72 667.74 651.62 669.11 651.45 670.47C648.65 681.07 643.77 690.65 637.76 699.77C628.46 713.9 614.88 725.3 599.77 732.8C585.8 738.82 571.33 742.8 556 742.55C496.34 742.69 436.67 742.48 377 742.58C325.67 742.45 274.33 742.73 223 742.58C209.44 742.61 195.51 741.74 183.01 735.99C170.68 731.23 159.41 724.31 150.02 714.97C144.92 710.11 140.47 704.35 136.27 698.69C130.12 689.94 125.73 679.6 122.31 669.51C119.71 659.19 117.49 648.3 117.89 637.62Z"
            fill="#d1dae3" opacity="1" stroke="none"/>
</svg>
