<?xml version="1.0" encoding="UTF-8" standalone="no"?>
<!DOCTYPE svg PUBLIC "-//W3C//DTD SVG 1.1//EN" "http://www.w3.org/Graphics/SVG/1.1/DTD/svg11.dtd">
<svg xmlns="http://www.w3.org/2000/svg" version="1.1" viewBox="0 0 1024 1024" width="1024.0pt" height="1024.0pt">
<path d="M 0.00 0.00 L 1024.00 0.00 L 1024.00 1024.00 L 0.00 1024.00 L 0.00 0.00 Z" fill="#fcfefd" />
<path d="M 512.00 175.97 C 528.55 176.04 542.94 189.65 544.63 205.98 C 545.77 214.02 543.08 221.24 539.07 228.06 C 533.14 237.62 526.26 246.42 519.06 255.04 C 516.29 257.94 514.34 260.98 510.24 262.06 C 507.86 260.02 505.56 257.91 503.58 255.45 C 496.85 247.05 490.16 238.80 484.17 229.84 C 482.83 227.81 481.64 225.70 480.64 223.49 C 476.52 215.17 476.86 204.71 480.25 196.20 C 485.66 183.76 498.43 175.67 512.00 175.97 Z" fill="#233547" />
<path d="M 507.49 192.62 C 517.70 189.69 528.35 198.73 528.53 209.00 C 528.90 218.36 521.48 227.17 512.04 227.83 C 502.06 228.39 493.27 218.80 493.90 209.00 C 493.96 201.10 499.93 194.41 507.49 192.62 Z" fill="#fcfefd" />
<path d="M 242.00 243.44 C 300.00 243.61 358.00 243.46 416.00 243.45 C 421.65 243.46 427.42 243.29 433.04 243.92 C 438.80 244.80 443.96 247.86 447.75 252.27 C 455.27 260.76 461.45 270.60 468.35 279.60 C 471.40 283.36 475.00 286.39 479.98 286.99 C 486.60 287.66 493.35 287.35 500.00 287.40 C 579.33 287.17 658.67 287.39 738.00 287.35 C 742.65 287.37 747.39 287.55 752.00 288.19 C 764.71 290.35 776.61 295.98 784.97 306.00 C 787.48 309.00 788.97 312.64 791.30 315.73 C 793.21 316.93 795.53 317.48 797.57 318.43 C 813.94 325.26 827.06 340.00 831.59 357.19 C 834.58 367.74 833.23 379.95 833.42 391.00 C 833.42 439.33 833.42 487.67 833.37 536.00 C 833.30 540.00 833.67 544.14 833.07 548.09 C 832.09 553.45 824.59 556.09 820.49 552.54 C 816.62 549.90 817.15 544.10 816.94 540.00 C 816.81 486.67 816.91 433.33 816.87 380.00 C 816.84 373.50 817.13 367.25 815.21 360.96 C 811.31 346.94 799.11 335.85 785.51 331.35 C 775.34 327.89 764.65 328.91 754.00 328.70 C 652.68 328.81 551.29 328.89 449.98 328.57 C 444.00 328.56 438.27 327.59 432.75 325.30 C 420.07 320.53 412.42 310.12 399.58 305.47 C 387.34 300.51 375.85 301.72 363.00 301.59 C 336.00 301.63 309.00 301.71 282.00 301.61 C 271.70 301.74 261.27 301.24 251.00 302.01 C 240.02 302.95 229.38 306.53 221.41 314.41 C 214.04 321.31 209.50 330.35 207.40 340.17 C 199.60 381.34 192.08 422.55 184.67 463.79 C 173.34 523.92 163.61 584.04 151.18 643.98 C 150.25 648.69 149.26 653.25 148.65 657.99 C 147.73 664.17 148.18 670.73 148.08 677.00 C 148.04 717.65 148.13 758.39 147.98 799.01 C 148.19 809.54 153.02 819.25 160.95 826.09 C 168.04 832.62 177.43 835.82 187.00 835.87 C 193.98 835.85 200.94 836.03 207.91 835.71 C 207.86 830.01 207.75 824.59 208.92 818.97 C 211.30 807.05 218.44 796.32 228.25 789.22 C 242.74 778.94 262.84 777.59 278.21 786.77 C 287.50 792.14 294.30 800.52 298.81 810.16 C 302.41 818.39 302.99 826.92 302.66 835.79 C 369.09 835.47 435.67 835.70 502.06 835.68 C 502.17 794.12 502.07 752.55 502.20 710.99 C 502.10 709.42 502.36 708.04 501.20 706.80 C 497.91 703.12 493.89 700.07 490.26 696.73 C 473.76 682.93 457.59 668.78 441.26 654.79 C 425.43 640.88 408.93 627.82 392.89 614.14 C 382.49 605.78 372.58 596.81 362.05 588.62 C 355.21 592.04 347.40 594.03 339.82 592.09 C 333.00 590.34 326.76 586.04 322.35 580.58 C 314.74 571.76 310.27 560.99 306.60 550.05 C 305.50 546.23 304.12 541.95 304.51 537.96 C 304.90 534.73 307.73 532.64 310.85 532.40 C 323.61 531.81 336.69 533.20 348.88 537.11 C 356.29 539.55 363.96 543.99 368.33 550.64 C 373.00 557.47 374.43 566.37 371.70 574.23 C 373.81 576.51 376.25 578.37 378.65 580.32 C 390.92 590.74 403.50 600.77 415.66 611.34 C 419.04 614.32 422.74 616.87 425.94 620.07 C 425.75 610.38 425.97 600.69 425.89 591.00 C 426.03 587.81 425.67 584.48 428.00 581.97 C 430.51 578.74 435.29 578.20 438.68 580.31 C 441.44 581.91 442.77 584.85 442.80 587.97 C 443.02 602.31 442.78 616.68 442.78 631.03 C 442.73 631.99 442.90 632.84 443.30 633.57 C 445.27 635.91 447.80 637.84 450.11 639.84 C 461.13 649.52 472.33 658.98 483.32 668.69 C 489.57 674.21 496.26 679.27 502.31 685.00 C 501.92 666.68 502.26 648.33 502.09 630.00 C 501.93 622.82 502.45 615.57 501.78 608.41 C 486.28 593.18 470.08 578.64 454.33 563.65 C 451.66 561.11 451.11 557.81 452.42 554.40 C 454.46 549.53 461.73 547.88 465.76 551.21 C 467.08 552.20 468.29 553.40 469.48 554.55 C 480.19 564.94 491.41 574.77 502.05 585.22 C 502.18 573.81 502.09 562.40 502.16 550.99 C 502.11 549.44 502.26 548.12 501.06 546.96 C 491.78 537.56 482.16 528.53 472.44 519.59 C 470.90 518.14 469.26 516.48 468.29 514.58 C 466.39 509.98 469.18 504.27 474.16 503.29 C 477.61 502.28 480.54 503.60 483.07 505.90 C 492.32 514.42 500.96 523.70 510.57 531.82 C 513.36 528.19 516.93 525.39 519.91 521.93 C 524.91 516.29 530.34 511.04 535.34 505.38 C 537.17 503.35 539.45 500.93 542.10 500.05 C 547.69 498.26 553.79 504.25 552.56 509.83 C 552.10 512.56 549.55 514.74 547.72 516.66 C 538.73 525.40 529.91 534.25 521.34 543.39 C 519.19 545.60 519.70 548.17 519.58 551.00 C 519.75 560.25 519.87 569.51 519.82 578.76 C 527.89 569.85 536.28 561.25 544.29 552.28 C 546.46 550.13 548.68 547.55 551.99 547.51 C 557.03 547.16 561.84 552.03 561.12 557.10 C 560.81 559.97 558.67 561.81 556.81 563.81 C 550.60 569.92 544.60 576.24 538.66 582.62 C 532.89 588.53 526.99 594.35 521.52 600.53 C 519.20 602.94 519.87 605.91 519.68 609.00 C 519.74 618.18 519.77 627.36 519.82 636.54 C 524.45 632.64 528.62 628.18 532.82 623.82 C 553.84 602.18 574.85 580.53 595.67 558.68 C 597.74 556.45 600.07 554.31 601.79 551.80 C 602.35 549.63 602.19 547.23 602.25 545.00 C 602.17 518.83 602.54 492.64 602.14 466.48 C 591.95 464.21 583.56 456.23 581.16 446.01 C 578.86 436.94 581.66 427.40 585.03 418.97 C 589.16 409.82 594.03 401.29 600.92 393.92 C 602.64 392.15 604.74 390.74 607.15 390.14 C 609.04 389.91 611.12 391.33 612.51 392.48 C 615.87 395.43 618.56 399.28 621.12 402.92 C 627.57 412.09 633.13 422.74 635.31 433.80 C 636.66 440.20 635.55 446.77 632.54 452.54 C 629.81 457.54 625.66 460.91 620.95 463.95 C 619.18 464.93 619.46 467.25 619.28 468.97 C 619.21 490.35 619.48 511.74 619.33 533.11 C 626.63 526.02 634.22 519.04 640.75 511.23 C 638.23 504.39 637.24 497.29 639.38 490.19 C 641.86 481.10 649.48 474.72 657.57 470.57 C 669.13 464.88 682.19 461.76 695.04 461.22 C 699.69 461.01 703.84 465.33 702.88 470.01 C 701.18 483.73 698.00 496.95 690.98 508.99 C 687.16 515.48 681.39 520.75 674.22 523.26 C 667.55 525.77 660.15 525.51 653.61 522.70 C 647.07 528.81 640.99 535.35 634.68 541.69 C 617.20 559.89 599.75 578.08 582.16 596.17 C 563.04 616.06 543.85 635.86 524.20 655.22 C 522.31 657.39 519.22 659.84 519.63 662.99 C 519.69 671.15 519.78 679.32 519.77 687.48 C 539.66 678.04 559.79 669.09 579.66 659.64 C 604.66 648.25 629.44 636.38 654.49 625.09 C 654.38 622.00 654.16 618.86 654.70 615.80 C 656.03 607.26 662.02 599.55 669.67 595.65 C 676.76 591.76 686.05 591.18 694.00 591.07 C 702.86 591.51 712.18 592.00 720.75 594.31 C 724.36 595.35 727.90 597.92 727.97 602.01 C 727.72 605.23 725.95 608.47 724.35 611.22 C 718.62 620.69 712.35 629.66 704.22 637.24 C 698.84 642.47 691.44 645.66 684.00 646.43 C 676.86 647.14 670.06 644.87 664.26 640.80 C 662.41 639.22 660.61 640.77 658.75 641.47 C 648.10 646.22 637.44 650.99 626.89 655.96 C 598.62 669.07 570.48 681.99 542.26 695.26 C 534.62 698.63 526.99 701.91 519.78 706.15 C 519.55 710.10 519.61 714.05 519.67 718.00 C 519.78 754.00 519.79 790.00 519.64 826.00 C 519.57 829.24 519.55 832.48 519.77 835.71 C 594.49 835.60 669.27 835.67 744.00 835.65 C 751.29 835.59 758.56 835.96 765.85 835.66 C 765.31 824.64 766.60 814.02 772.41 804.43 C 778.63 793.85 788.90 784.92 801.07 782.20 C 808.94 780.20 817.13 779.91 825.00 782.09 C 838.51 785.40 849.84 795.92 855.65 808.35 C 859.76 817.04 860.49 826.27 860.06 835.75 C 869.71 835.89 879.36 835.78 889.00 835.67 C 891.99 835.67 894.66 835.82 896.82 838.13 C 900.02 841.08 899.76 845.84 896.92 848.95 C 894.29 852.01 890.70 851.86 887.00 851.94 C 825.68 852.34 764.33 852.05 703.00 852.10 C 532.00 852.09 361.00 852.11 190.00 852.12 C 184.66 852.10 179.04 852.28 173.79 851.26 C 155.95 846.87 140.38 833.30 134.07 816.00 C 130.44 805.98 131.55 796.46 131.36 786.00 C 131.61 728.00 131.21 670.00 131.42 612.00 C 131.35 523.67 131.53 435.33 131.30 347.00 C 131.23 339.32 132.06 331.77 134.55 324.47 C 139.03 312.17 147.83 301.76 158.90 294.84 C 164.15 291.60 169.74 289.84 175.54 287.91 C 177.02 269.13 190.92 251.46 209.07 246.12 C 219.38 242.61 231.16 243.67 242.00 243.44 Z" fill="#233547" />
<path d="M 230.00 259.83 C 292.00 259.83 354.00 259.89 416.00 259.84 C 420.66 259.91 425.37 259.54 430.01 259.94 C 432.56 260.06 434.67 262.92 436.24 264.69 C 442.04 272.25 447.71 279.92 453.34 287.60 C 457.55 293.24 462.42 298.12 468.90 301.07 C 475.72 304.23 482.65 304.19 490.00 304.31 C 573.00 304.35 656.00 304.40 739.00 304.23 C 748.55 304.12 758.76 305.50 766.41 311.70 C 760.62 312.09 754.80 311.75 749.00 311.91 C 651.33 311.78 553.67 311.81 456.00 311.92 C 450.22 311.77 443.54 312.33 438.26 309.70 C 432.93 307.23 428.31 302.89 423.41 299.60 C 411.31 290.63 395.91 285.97 381.00 284.92 C 343.36 284.89 305.65 285.02 268.00 284.90 C 261.49 284.93 255.40 284.41 249.16 285.47 C 244.45 286.22 239.78 286.90 235.00 286.78 C 220.82 286.68 206.62 286.65 192.45 286.15 C 193.77 282.02 195.02 278.11 197.47 274.49 C 202.19 267.51 209.77 262.47 218.01 260.74 C 221.85 259.88 226.07 259.89 230.00 259.83 Z" fill="#fcfefd" />
<path d="M 879.29 283.30 C 884.63 282.37 889.10 287.94 886.96 292.93 C 884.74 296.67 880.52 299.36 877.45 302.41 C 874.39 305.07 871.32 308.91 867.51 310.40 C 862.22 312.03 857.36 304.96 860.52 300.52 C 863.24 297.04 866.96 294.23 870.07 291.08 C 872.85 288.48 875.69 284.71 879.29 283.30 Z" fill="#233547" />
<path d="M 210.81 302.42 C 205.40 307.68 199.95 313.71 196.56 320.51 C 191.66 329.97 190.44 339.64 188.42 349.98 C 185.37 367.37 181.86 384.66 178.70 402.02 C 174.26 427.35 169.56 452.68 164.97 477.98 C 161.70 496.99 158.46 516.07 154.85 535.02 C 152.52 548.05 150.49 561.23 147.78 574.18 C 147.76 567.12 148.48 560.07 148.31 553.00 C 147.99 483.01 148.11 412.99 148.09 343.00 C 148.48 326.80 158.52 311.52 173.85 305.81 C 185.27 301.29 198.53 302.67 210.81 302.42 Z" fill="#fcfefd" />
<path d="M 363.48 357.60 C 372.77 355.60 383.22 359.49 389.26 366.77 C 397.23 376.28 398.13 390.54 390.67 400.62 C 383.84 410.45 370.15 414.83 358.84 411.12 C 347.19 406.96 338.88 394.61 340.54 382.16 C 341.78 370.06 351.42 359.54 363.48 357.60 Z" fill="#233547" />
<path d="M 891.44 359.55 C 893.48 362.11 892.78 366.65 892.88 369.71 C 896.74 369.30 902.11 368.14 905.62 370.30 C 908.47 372.40 908.10 376.40 904.79 377.79 C 901.06 378.96 896.51 378.06 892.62 378.20 C 892.65 381.53 893.27 386.22 891.02 389.02 C 888.91 391.02 884.93 389.81 883.50 387.53 C 882.37 384.67 882.67 381.10 882.54 378.06 C 879.21 378.30 875.75 378.74 872.42 378.41 C 870.07 377.99 866.95 375.73 867.91 373.00 C 868.28 371.24 869.73 370.01 871.46 369.64 C 875.05 368.88 879.11 369.40 882.75 369.59 C 882.89 366.67 882.41 363.03 883.65 360.31 C 885.35 357.45 889.28 356.91 891.44 359.55 Z" fill="#233547" />
<path d="M 364.50 373.71 C 369.03 372.08 373.63 373.87 376.73 377.32 C 380.70 381.51 380.53 389.29 376.13 393.14 C 371.35 397.85 362.27 397.26 358.51 391.50 C 354.16 385.12 357.18 376.15 364.50 373.71 Z" fill="#fcfefd" />
<path d="M 280.18 379.31 C 284.28 378.68 288.94 378.60 293.08 378.94 C 295.95 379.23 297.51 381.30 298.00 384.00 C 297.60 386.53 295.82 388.93 293.08 389.08 C 289.03 389.36 284.25 389.95 280.40 388.51 C 276.76 386.80 276.63 381.07 280.18 379.31 Z" fill="#233547" />
<path d="M 313.41 379.41 C 317.40 378.43 321.92 378.89 326.02 378.89 C 328.84 378.95 331.38 379.69 332.45 382.56 C 334.17 385.35 330.83 388.94 328.01 389.06 C 323.53 389.37 318.49 389.88 314.11 388.84 C 309.96 387.29 309.51 381.39 313.41 379.41 Z" fill="#233547" />
<path d="M 736.62 393.99 C 745.59 390.51 756.31 393.16 762.23 400.81 C 764.91 404.72 767.74 409.07 767.66 413.99 C 767.95 419.93 765.81 425.56 762.27 430.24 C 755.24 438.98 742.06 441.44 732.60 435.18 C 722.47 428.91 718.95 414.85 724.36 404.35 C 726.69 399.05 731.39 396.00 736.62 393.99 Z" fill="#fe735f" />
<path d="M 889.83 402.31 C 891.66 402.96 893.64 403.45 894.41 405.47 C 895.45 409.38 894.71 413.21 892.42 416.51 C 889.39 417.35 887.98 417.10 885.20 415.75 C 885.86 410.98 887.21 406.39 889.83 402.31 Z" fill="#233547" />
<path d="M 602.19 432.16 C 602.50 434.67 602.49 437.35 603.23 439.77 C 605.28 443.54 611.00 444.23 613.02 440.06 C 613.91 437.17 613.84 434.01 614.63 431.06 C 620.08 433.19 620.38 438.98 618.59 443.82 C 616.57 450.12 608.64 453.52 602.86 450.09 C 596.98 446.95 595.04 439.44 597.60 433.53 C 598.59 431.71 600.40 431.79 602.19 432.16 Z" fill="#fcfefd" />
<path d="M 297.70 455.11 C 303.60 453.59 310.84 453.57 316.18 456.89 C 321.77 459.56 325.29 465.18 327.21 470.88 C 329.47 479.08 326.76 488.74 320.71 494.70 C 314.68 499.71 306.72 502.16 298.99 499.97 C 290.40 497.63 283.94 490.53 282.34 481.77 C 280.92 476.13 282.37 470.81 284.66 465.65 C 287.33 460.35 292.22 457.04 297.70 455.11 Z" fill="#fe735f" />
<path d="M 886.41 480.16 C 889.62 478.83 893.64 480.31 894.24 483.97 C 894.51 488.84 894.93 494.14 894.01 498.94 C 891.80 502.80 883.99 501.59 883.55 496.85 C 883.08 492.72 882.96 488.29 883.38 484.16 C 883.65 482.29 884.92 481.16 886.41 480.16 Z" fill="#233547" />
<path d="M 664.52 490.86 C 663.97 494.08 661.22 496.07 662.46 499.56 C 663.42 500.68 664.48 501.63 666.03 501.68 C 668.43 501.93 670.86 500.09 673.11 499.36 C 676.03 499.05 675.92 502.37 675.34 504.30 C 673.99 506.67 671.02 507.94 668.47 508.54 C 665.08 509.23 661.69 509.46 658.82 507.20 C 653.44 503.73 653.20 494.91 657.71 490.69 C 659.50 488.91 663.08 488.39 664.52 490.86 Z" fill="#fcfefd" />
<path d="M 887.49 510.65 C 890.29 509.63 893.84 511.46 894.43 514.44 C 895.13 517.80 895.42 521.92 892.05 523.94 C 888.85 525.95 884.53 524.20 883.61 520.56 C 882.84 516.83 883.05 511.84 887.49 510.65 Z" fill="#233547" />
<path d="M 351.11 556.73 C 357.97 560.02 359.19 569.52 353.62 574.65 C 347.90 579.42 339.51 576.94 335.75 570.98 C 334.89 569.81 334.92 566.56 336.87 566.79 C 340.29 567.79 343.32 570.05 347.04 569.24 C 348.88 568.66 349.20 567.84 349.45 566.01 C 348.79 563.58 347.01 561.34 346.10 559.03 C 345.72 556.25 349.27 556.45 351.11 556.73 Z" fill="#fcfefd" />
<path d="M 823.47 579.53 C 826.40 578.91 829.68 580.06 831.44 582.51 C 833.51 584.91 833.33 588.92 832.82 591.84 C 831.56 597.27 823.52 599.42 819.83 595.14 C 817.30 592.57 817.45 589.32 817.76 585.97 C 817.86 582.88 820.41 579.98 823.47 579.53 Z" fill="#233547" />
<path d="M 887.38 599.39 C 890.60 598.16 894.70 599.77 895.68 603.23 C 896.13 606.10 895.99 609.13 895.64 612.01 C 895.53 613.70 894.31 615.13 892.75 615.68 C 888.79 616.98 884.15 613.01 884.03 609.03 C 883.72 605.11 883.07 601.26 887.38 599.39 Z" fill="#233547" />
<path d="M 680.58 611.32 C 682.26 611.67 682.39 613.44 683.06 614.76 C 681.51 616.11 679.40 617.59 678.56 619.51 C 678.22 621.24 679.09 623.07 680.94 623.44 C 684.69 624.29 687.97 623.20 691.53 622.14 C 692.24 623.83 692.73 625.37 692.24 627.21 C 689.27 629.72 684.77 630.61 680.99 630.86 C 675.54 631.23 670.56 626.47 670.62 621.01 C 669.88 615.72 675.04 609.75 680.58 611.32 Z" fill="#fcfefd" />
<path d="M 823.29 625.33 C 827.51 624.37 832.52 627.49 832.85 631.98 C 833.27 636.62 832.95 641.34 833.04 646.00 C 833.03 649.66 833.29 653.39 832.90 657.03 C 832.78 659.91 830.04 661.66 827.62 662.57 C 822.75 664.11 817.45 659.92 817.52 654.87 C 817.33 647.33 817.34 639.69 817.53 632.15 C 817.62 628.72 820.19 626.33 823.29 625.33 Z" fill="#233547" />
<path d="M 396.26 641.72 C 402.97 646.45 407.29 654.76 406.94 663.00 C 406.88 668.29 404.82 673.59 401.84 677.92 C 397.12 684.24 389.81 687.78 382.15 689.06 C 372.03 690.62 361.98 690.20 351.84 689.15 C 349.34 688.78 346.15 688.50 344.05 686.97 C 342.28 685.26 341.91 682.78 342.48 680.46 C 343.78 675.04 347.30 669.95 350.26 665.28 C 351.83 662.97 353.60 660.12 356.04 658.67 C 362.97 658.51 370.05 659.53 376.95 660.17 C 379.83 660.32 382.07 663.14 381.05 665.93 C 379.91 668.24 376.62 669.47 374.47 670.65 C 374.89 671.64 375.30 672.63 375.71 673.62 C 380.09 674.16 384.19 672.34 386.99 668.99 C 389.04 666.30 389.38 662.35 388.47 659.18 C 387.35 656.40 384.37 654.42 381.69 653.33 C 374.61 650.56 366.71 650.14 359.77 648.40 C 367.46 636.46 384.81 633.68 396.26 641.72 Z" fill="#233547" />
<path d="M 248.48 697.56 C 258.62 695.47 269.50 697.84 277.43 704.62 C 288.37 713.51 293.27 729.63 287.66 742.81 C 282.23 756.48 267.60 765.31 252.99 764.23 C 242.07 763.88 232.33 757.61 226.31 748.69 C 218.32 736.43 219.98 718.63 230.02 708.00 C 234.76 702.70 241.48 698.84 248.48 697.56 Z" fill="#233547" />
<path d="M 805.49 697.63 C 809.61 696.76 813.84 696.59 818.00 697.26 C 832.65 699.18 844.98 712.42 846.50 727.00 C 847.61 736.15 844.59 745.61 838.46 752.49 C 830.09 762.15 816.34 766.37 803.97 763.33 C 789.21 759.58 777.83 745.41 778.40 730.00 C 778.67 714.51 790.28 700.60 805.49 697.63 Z" fill="#233547" />
<path d="M 598.50 710.68 C 608.80 708.30 619.68 712.66 626.05 720.95 C 630.48 727.20 632.68 734.89 631.38 742.52 C 630.08 749.48 626.05 756.17 620.21 760.23 C 613.63 764.75 604.79 766.74 597.00 764.69 C 587.78 762.59 580.13 754.64 577.28 745.77 C 575.05 738.56 576.10 730.43 579.94 723.96 C 583.71 717.04 590.86 712.29 598.50 710.68 Z" fill="#233547" />
<path d="M 422.18 726.15 C 426.76 725.14 431.49 725.48 435.88 727.12 C 440.38 728.61 444.11 732.37 446.97 736.02 C 453.57 745.75 451.47 759.90 442.42 767.36 C 437.60 770.88 432.08 773.21 425.99 772.65 C 413.46 772.41 403.33 760.28 404.17 748.01 C 404.13 737.52 411.92 728.16 422.18 726.15 Z" fill="#fe735f" />
<path d="M 598.53 727.68 C 603.00 725.37 608.74 726.08 612.27 729.75 C 616.86 734.02 616.67 741.89 612.07 746.08 C 609.12 749.25 604.15 749.60 600.17 748.74 C 595.54 746.93 592.21 742.03 592.63 736.99 C 592.58 733.11 595.31 729.57 598.53 727.68 Z" fill="#fcfefd" />
<path d="M 688.00 729.35 C 690.07 729.51 691.99 729.93 692.96 731.97 C 695.09 735.11 692.33 739.27 688.88 739.57 C 685.38 739.86 681.64 739.87 678.15 739.54 C 675.44 739.38 673.43 736.60 673.65 734.02 C 673.88 732.28 674.95 731.17 675.98 729.85 C 679.93 729.26 684.02 729.12 688.00 729.35 Z" fill="#233547" />
<path d="M 727.47 729.63 C 731.13 729.09 735.33 729.01 739.01 729.35 C 742.75 729.43 745.09 734.85 742.48 737.55 C 740.32 740.27 737.11 739.81 734.00 739.93 C 730.89 739.72 727.34 740.46 725.09 737.80 C 722.67 735.35 723.93 730.16 727.47 729.63 Z" fill="#233547" />
</svg>